<?xml version="1.0" encoding="UTF-8" standalone="no"?>
<svg
   xmlns:dc="http://purl.org/dc/elements/1.1/"
   xmlns:cc="http://creativecommons.org/ns#"
   xmlns:rdf="http://www.w3.org/1999/02/22-rdf-syntax-ns#"
   xmlns:svg="http://www.w3.org/2000/svg"
   xmlns="http://www.w3.org/2000/svg"
   xmlns:sodipodi="http://sodipodi.sourceforge.net/DTD/sodipodi-0.dtd"
   xmlns:inkscape="http://www.inkscape.org/namespaces/inkscape"
   id="svg"
   version="1.1"
   width="398"
   height="323"
   inkscape:version="0.91 r13725"
   sodipodi:docname="oilandgas.svg">
  <metadata
     id="metadata4143">
    <rdf:RDF>
      <cc:Work
         rdf:about="">
        <dc:format>image/svg+xml</dc:format>
        <dc:type
           rdf:resource="http://purl.org/dc/dcmitype/StillImage" />
      </cc:Work>
    </rdf:RDF>
  </metadata>
  <defs
     id="defs4141" />
  <sodipodi:namedview
     pagecolor="#ffffff"
     bordercolor="#666666"
     borderopacity="1"
     objecttolerance="10"
     gridtolerance="10"
     guidetolerance="10"
     inkscape:pageopacity="0"
     inkscape:pageshadow="2"
     inkscape:window-width="1920"
     inkscape:window-height="1017"
     id="namedview4139"
     showgrid="false"
     inkscape:zoom="2.6068111"
     inkscape:cx="291.20157"
     inkscape:cy="118.08032"
     inkscape:window-x="-8"
     inkscape:window-y="-8"
     inkscape:window-maximized="1"
     inkscape:current-layer="svg" />
  <path
     d="m 293.825,55.337 c -0.922,0.701 -2.361,4.174 -3.199,7.719 -2.549,10.779 -4.652,21.341 -4.639,23.29 0.007,1.015 -0.678,4.224 -1.523,7.13 -1.441,4.956 -1.798,5.355 -5.75,6.423 -2.318,0.626 -6.914,1.571 -10.214,2.1 -14.361,2.302 -23.105,3.877 -24.5,4.413 -0.825,0.317 -4.2,1.022 -7.5,1.566 -3.3,0.544 -9.6,1.667 -14,2.495 -4.4,0.828 -11.825,2.149 -16.5,2.934 -4.675,0.786 -9.175,1.688 -10,2.005 -0.825,0.317 -4.2,1.022 -7.5,1.566 -3.3,0.544 -9.711,1.684 -14.246,2.534 -8.737,1.636 -19.545,3.58 -30.254,5.44 -3.575,0.621 -8.075,1.58 -10,2.13 -1.925,0.551 -6.425,1.415 -10,1.92 -5.989,0.847 -16.044,2.674 -26.872,4.882 -4.68,0.955 -6.088,2.302 -6.113,5.846 -0.008,1.226 -0.631,3.926 -1.385,6 -2.338,6.435 -4.63,14.85 -4.63,17.001 0,1.13 0.675,2.314 1.5,2.631 0.825,0.316 1.5,1.183 1.5,1.926 0,0.743 1.1,2.308 2.444,3.477 1.414,1.229 2.712,3.729 3.078,5.93 0.599,3.598 1.203,5.837 4.802,17.805 0.827,2.75 1.736,6.35 2.02,8 0.284,1.65 0.821,3.787 1.193,4.75 0.604,1.563 -0.059,1.75 -6.195,1.75 -10.141,0 -15.566,3.35 -20.582,12.71 -2.477,4.62 -2.316,13.162 0.344,18.264 1.157,2.22 2.507,4.285 3,4.59 0.493,0.305 0.896,5.927 0.896,12.495 L 79,269 58.082,269 c -11.505,0 -21.63,0.273 -22.5,0.607 -1.329,0.51 -1.582,2.663 -1.582,13.465 0,11.653 0.18,12.954 1.919,13.885 2.526,1.351 315.929,1.409 318.08,0.059 1.165,-0.732 1.549,-3.461 1.721,-12.231 C 356.053,267.846 356.992,269 342.883,269 l -11.883,0 0,-14.5 0,-14.5 -6,0 -6,0 0,-23.3 c 0,-12.815 0.397,-23.727 0.882,-24.25 1.356,-1.46 4.798,-14.872 6.546,-25.508 2.015,-12.254 2.052,-36.569 0.074,-49.016 -3.523,-22.173 -7.163,-33.454 -15.929,-49.375 -2.96,-5.376 -11.472,-14.558 -13.46,-14.519 -0.887,0.017 -2.367,0.605 -3.288,1.305 m 2.7,82.663 c 0.943,3.575 2.354,8.75 3.138,11.5 0.783,2.75 2.051,7.25 2.818,10 2.699,9.683 4.816,17.046 6.161,21.428 0.747,2.436 1.358,5.055 1.358,5.822 0,0.766 0.675,2.068 1.5,2.893 1.251,1.251 1.5,5.547 1.5,25.928 l 0,24.429 -6,0 -6,0 0,14.5 0,14.5 -34.266,0 -34.266,0 -1.869,-8.25 c -1.028,-4.538 -2.439,-10.725 -3.135,-13.75 -2.855,-12.401 -2.847,-12.877 0.246,-13.54 1.535,-0.329 3.824,-1.017 5.087,-1.529 3.33,-1.35 5.203,-1.145 5.203,0.569 0,1 1,1.5 3,1.5 3.427,0 3.522,-0.449 1.583,-7.412 -0.78,-2.798 -2.164,-8.688 -3.076,-13.088 -0.912,-4.4 -2.253,-10.475 -2.979,-13.5 -0.726,-3.025 -2.065,-8.875 -2.976,-13 -0.91,-4.125 -2.275,-10.2 -3.033,-13.5 -0.758,-3.3 -1.937,-8.608 -2.619,-11.797 -0.683,-3.188 -1.619,-6.029 -2.08,-6.314 -1.422,-0.879 -4.992,0.72 -4.496,2.014 0.432,1.126 -2.865,2.439 -10.324,4.111 -2.382,0.534 -2.582,0.215 -4.25,-6.783 -2.55,-10.7 -2.468,-11.107 2.5,-12.404 2.338,-0.611 7.4,-1.638 11.25,-2.284 3.85,-0.647 10.6,-1.852 15,-2.68 4.4,-0.828 11.375,-2.119 15.5,-2.87 4.125,-0.75 11.325,-2.076 16,-2.947 4.675,-0.871 11.331,-2.046 14.79,-2.612 3.46,-0.566 7.285,-1.408 8.5,-1.873 3.81964,-0.72175 3.512,0.609 6.235,10.939 m -141.583,20.589 c -0.625,2.701 -1.759,7.726 -2.521,11.166 -0.763,3.44 -2.034,9.065 -2.826,12.5 -0.793,3.435 -2.166,9.62 -3.053,13.745 -2.486,11.568 -4.669,20.996 -6.173,26.654 -0.753,2.835 -1.369,6.274 -1.369,7.643 0,3.284 -1.423,3.703 -12.582,3.703 l -9.418,0 0,-2.634 c 0,-3.424 -2.014,-10.452 -3.544,-12.366 -1.232,-1.541 -2.911,-6.615 -5.956,-18 -0.956,-3.575 -2.306,-8.525 -3,-11 -5.068,-18.082 -5.072,-18.101 -4.683,-24.529 0.178,-2.947 0.377,-3.062 7.433,-4.301 3.987,-0.7 10.625,-1.893 14.75,-2.651 4.125,-0.758 11.325,-2.079 16,-2.934 4.675,-0.856 10.3,-1.935 12.5,-2.399 2.2,-0.464 4.355,-0.543 4.789,-0.176 0.434,0.368 0.278,2.878 -0.347,5.579 M 223,164.435 c 0,1.339 0.433,3.573 0.962,4.964 1.112,2.926 0.451,3.561 -4.885,4.689 -1.967,0.416 -4.525,1.052 -5.685,1.414 -1.839,0.573 -2.177,0.169 -2.651,-3.173 -0.299,-2.106 -0.844,-4.572 -1.211,-5.479 -0.538,-1.331 0.17,-1.789 3.651,-2.363 2.376,-0.392 4.994,-1.098 5.819,-1.569 2.633,-1.505 4,-0.986 4,1.517 m -31.62,13.886 c 2.742,11.391 5.513,23.47 9.104,39.679 0.913,4.125 2.269,10.2 3.013,13.5 0.744,3.3 2.129,9.6 3.078,14 0.949,4.4 2.333,10.219 3.075,12.932 0.743,2.712 1.35,6.199 1.35,7.75 l 0,2.818 -30.113,0 -30.114,0 0.475,-2.75 c 0.262,-1.512 1.032,-5 1.711,-7.75 2.475,-10.012 3.89,-16.162 5.524,-24 0.918,-4.4 2.263,-10.475 2.989,-13.5 0.726,-3.025 2.062,-8.875 2.968,-13 0.907,-4.125 2.341,-10.65 3.187,-14.5 0.846,-3.85 2.176,-9.581 2.955,-12.735 0.78,-3.154 1.418,-6.609 1.418,-7.678 0,-1.779 0.752,-1.944 8.826,-1.944 l 8.826,0 1.728,7.178 m 34.62,0.114 c 0,1.339 0.408,3.507 0.906,4.818 1.159,3.048 -0.829,4.403 -7.819,5.33 -4.969,0.659 -5.087,0.615 -5.087,-1.889 0,-1.41 -0.416,-3.657 -0.924,-4.994 -0.843,-2.216 -0.601,-2.528 2.75,-3.54 3.874,-1.17 6.85,-1.851 8.924,-2.044 0.69,-0.064 1.25,0.976 1.25,2.319 m 3.55,15.815 c 0.443,2.338 0.838,4.692 0.877,5.233 0.04,0.541 -1.727,1.349 -3.927,1.797 -2.2,0.448 -5.238,1.069 -6.75,1.38 -2.217,0.457 -2.752,0.206 -2.761,-1.297 -0.006,-1.024 -0.278,-3.479 -0.605,-5.455 l -0.594,-3.592 5.355,-1.026 c 2.945,-0.565 5.86,-1.086 6.477,-1.159 0.617,-0.072 1.485,1.781 1.928,4.119 m 3.123,14.5 c 0.621,2.613 0.816,5.085 0.434,5.494 -0.382,0.409 -3.487,1.035 -6.901,1.392 -5.772,0.604 -6.206,0.508 -6.206,-1.369 0,-1.109 -0.281,-3.423 -0.625,-5.142 -0.559,-2.796 -0.375,-3.127 1.75,-3.14 1.306,-0.009 3.05,-0.452 3.875,-0.985 0.825,-0.533 2.635,-0.976 4.023,-0.985 2.188,-0.013 2.672,0.615 3.65,4.735 m 2.678,12 c 0.33,1.512 0.889,3.762 1.242,5 0.545,1.914 0.258,2.25 -1.917,2.25 -1.407,0 -2.804,0.398 -3.105,0.885 -0.681,1.102 -6.19,1.969 -7.473,1.176 -0.521,-0.323 -1.094,-2.828 -1.273,-5.568 l -0.325,-4.982 3.5,-0.624 c 7.458,-1.329 8.708,-1.08 9.351,1.863"
     id="path4137"
     inkscape:connector-curvature="0"
     style="fill:#999999;fill-rule:evenodd;stroke:none"
     sodipodi:nodetypes="cccccscsscsscccccccscsccsscsccsscscscccscccccscccsccccccssscccccccccccsscsscscccccccscsccccccccsscscccccscscccccccccccccsscsccccccscscssccccssccccccsccccccccscsccsccccscccccc" />
</svg>
